<?xml version="1.0" encoding="utf-8"?>
<!-- Generator: Adobe Illustrator 28.2.0, SVG Export Plug-In . SVG Version: 6.00 Build 0)  -->
<svg version="1.1" id="Layer_1" xmlns="http://www.w3.org/2000/svg" xmlns:xlink="http://www.w3.org/1999/xlink" x="0px" y="0px"
	 viewBox="0 0 30 30" style="enable-background:new 0 0 30 30;" xml:space="preserve">
<style type="text/css">
	.st0{fill:#231F20;}
	.st1{fill:#FFFFFF;}
</style>
<path class="st0" d="M25,30H5c-2.8,0-5-2.2-5-5V5c0-2.8,2.2-5,5-5h20c2.8,0,5,2.2,5,5v20C30,27.8,27.8,30,25,30z"/>
<g>
	<path class="st1" d="M12.2,26h2l0.3-0.9h0.3H16c1.4,0,2.3-1.2,2.3-2.6v-3.5c0-0.6-0.3-1.4-0.6-1.7l0.6-1.4h-2L16,16.5h-0.3h-1.2
		c-1.4,0-2.6,1.2-2.6,2.6v3.8c0,0.6,0.3,1.4,0.9,1.7L12.2,26z M16.3,19.9v2.9c0,0.6-0.3,0.9-0.9,0.9h-0.3L16.3,19.9z M13.7,19.1
		c0-0.3,0.3-0.9,0.9-0.9h0.6l-1.4,3.5V19.1z"/>
	<polygon class="st1" points="7.3,21.7 5.3,16.5 3,16.5 3,25.4 4.7,25.4 4.7,20.2 6.7,25.4 9.1,25.4 9.1,16.5 7.3,16.5 	"/>
	<path class="st1" d="M6.4,12.9c1.4,0,2.6-1.1,2.6-2.5v-0.3c0-0.6-0.3-1.4-0.9-1.7C8.5,8,8.8,7.5,8.8,6.9l0,0c0-1.4-1.2-2.6-2.6-2.6
		H4.7H3v8.6h0.9H6.4L6.4,12.9z M4.7,5.7h1.4C6.4,5.7,7,6,7,6.6l0,0c0,0.3-0.3,0.9-0.9,0.9H4.7V5.7z M4.7,9.2h1.7
		c0.3,0,0.9,0.3,0.9,0.9v0.3c0,0.3-0.3,0.9-0.9,0.9H4.7V9.2z"/>
	<polygon class="st1" points="18,11.2 14.6,11.2 14.6,4 13.1,4 13.1,11.2 12,11.2 12,12.9 18,12.9 	"/>
	<polygon class="st1" points="22.7,9.2 22.7,9.2 24.7,12.9 27,12.9 24.1,8.3 27,4 24.7,4 22.7,7.5 22.7,7.5 22.7,4 20.9,4 
		20.9,12.9 22.7,12.9 	"/>
	<polygon class="st1" points="23.3,25.1 23.8,22.2 24.7,25.1 26.2,25.1 27,19.4 27,16.5 25,16.5 25,18.8 25,21.1 24.7,18.5 
		23.3,18.5 22.7,21.1 22.4,18.8 22.4,16.5 20.9,16.5 20.9,19.4 21.8,25.1 	"/>
</g>
</svg>
