<?xml version="1.0" encoding="utf-8"?>
<!-- Generator: Adobe Illustrator 20.1.0, SVG Export Plug-In . SVG Version: 6.00 Build 0)  -->
<svg version="1.1" id="Capa_1" xmlns="http://www.w3.org/2000/svg" xmlns:xlink="http://www.w3.org/1999/xlink" x="0px" y="0px"
	 viewBox="0 0 49.7 49.7" style="enable-background:new 0 0 49.7 49.7;" xml:space="preserve">
<style type="text/css">
	.st0{fill:#FFFFFF;}
</style>
<g>
	<g>
		<path d="M24.8,0C11.1,0,0,11.1,0,24.8c0,13.7,11.1,24.8,24.8,24.8c13.7,0,24.8-11.1,24.8-24.8C49.7,11.1,38.5,0,24.8,0z"/>
	</g>
</g>
<g>
	<path class="st0" d="M31.3,10.5H18.4c-4.4,0-7.9,3.6-7.9,7.9v12.9c0,4.4,3.6,7.9,7.9,7.9h12.9c4.4,0,7.9-3.6,7.9-7.9V18.4
		C39.2,14,35.6,10.5,31.3,10.5z M36.6,31.3c0,3-2.4,5.4-5.4,5.4H18.4c-3,0-5.4-2.4-5.4-5.4V18.4c0-3,2.4-5.4,5.4-5.4h12.9
		c3,0,5.4,2.4,5.4,5.4L36.6,31.3L36.6,31.3z"/>
	<path class="st0" d="M24.8,17.4c-4.1,0-7.4,3.3-7.4,7.4c0,4.1,3.3,7.4,7.4,7.4s7.4-3.3,7.4-7.4C32.2,20.7,28.9,17.4,24.8,17.4z
		 M24.8,29.7c-2.7,0-4.9-2.2-4.9-4.9c0-2.7,2.2-4.9,4.9-4.9s4.9,2.2,4.9,4.9C29.7,27.5,27.5,29.7,24.8,29.7z"/>
	<path class="st0" d="M32.5,15.3c-0.5,0-1,0.2-1.3,0.5c-0.3,0.3-0.5,0.8-0.5,1.3c0,0.5,0.2,1,0.5,1.3c0.3,0.3,0.8,0.5,1.3,0.5
		c0.5,0,1-0.2,1.3-0.5c0.3-0.3,0.5-0.8,0.5-1.3c0-0.5-0.2-1-0.5-1.3C33.5,15.5,33,15.3,32.5,15.3z"/>
</g>
</svg>
