<?xml version="1.0" encoding="utf-8"?>
<!-- Generator: Adobe Illustrator 28.0.0, SVG Export Plug-In . SVG Version: 6.00 Build 0)  -->
<svg version="1.1" id="Layer_2_00000105417593368598851470000003974512942670046864_"
	 xmlns="http://www.w3.org/2000/svg" xmlns:xlink="http://www.w3.org/1999/xlink" x="0px" y="0px" viewBox="0 0 20.2 12.7"
	 style="enable-background:new 0 0 20.2 12.7;" xml:space="preserve">
<g>
	<path d="M12.9,10.4h0.7l0.1-0.3h0.1h0.4c0.5,0,0.8-0.4,0.8-0.9V8c0-0.2-0.1-0.5-0.2-0.6L15,6.9h-0.7l-0.1,0.2h-0.1h-0.4
		c-0.5,0-0.9,0.4-0.9,0.9v1.3c0,0.2,0.1,0.5,0.3,0.6L12.9,10.4z M14.3,8.3v1c0,0.2-0.1,0.3-0.3,0.3h-0.1L14.3,8.3z M13.4,8
		c0-0.1,0.1-0.3,0.3-0.3h0.2l-0.5,1.2V8z"/>
	<polygon points="11.2,8.9 10.5,7.1 9.7,7.1 9.7,10.2 10.3,10.2 10.3,8.4 11,10.2 11.8,10.2 11.8,7.1 11.2,7.1 	"/>
	<path d="M10.9,5.4c0.5,0,0.9-0.4,0.9-0.9V4.4c0-0.2-0.1-0.5-0.3-0.6c0.1-0.1,0.2-0.3,0.2-0.5l0,0c0-0.5-0.4-0.9-0.9-0.9h-0.5H9.7
		v3.1H10L10.9,5.4L10.9,5.4z M10.3,2.9h0.5c0.1,0,0.3,0.1,0.3,0.3l0,0c0,0.1-0.1,0.3-0.3,0.3h-0.5V2.9z M10.3,4.1h0.6
		c0.1,0,0.3,0.1,0.3,0.3v0.1c0,0.1-0.1,0.3-0.3,0.3h-0.6V4.1z"/>
	<polygon points="14.9,4.8 13.7,4.8 13.7,2.3 13.2,2.3 13.2,4.8 12.8,4.8 12.8,5.4 14.9,5.4 	"/>
	<polygon points="16.5,4.1 16.5,4.1 17.2,5.4 18,5.4 17,3.8 18,2.3 17.2,2.3 16.5,3.5 16.5,3.5 16.5,2.3 15.9,2.3 15.9,5.4 
		16.5,5.4 	"/>
	<polygon points="16.7,10.1 16.9,9.1 17.2,10.1 17.7,10.1 18,8.1 18,7.1 17.3,7.1 17.3,7.9 17.3,8.7 17.2,7.8 16.7,7.8 16.5,8.7 
		16.4,7.9 16.4,7.1 15.9,7.1 15.9,8.1 16.2,10.1 	"/>
	<path d="M8.1,0H7.8H7.5H0.6H0.1v7.7l0,0V8v4.6h4.6H5h2.8h0.3h12.1V0H8.1z M7.5,10.3L7.1,9.8h0.4V10.3z M4.7,10.2L4.3,9.7l0.4-0.6
		v0.2l0,0v0.3v0.3C4.7,9.9,4.7,10.2,4.7,10.2z M1,8.8L0.6,9.4V8.3L1,8.8z M0.6,9.9L1,10.5l-0.4,0.6V9.9z M1.4,10.5L0.9,9.7l0.6-0.8
		L0.9,8h0.7l0.6,0.8L1.5,9.7l0.6,0.8l-0.6,0.8l0.6,0.8l0,0H1.4l0,0l-0.6-0.8L1.4,10.5z M2,11.3l0.6-0.8L2,9.7l0.6-0.8L2,8h0.7
		l0.6,0.8L2.7,9.7l0.6,0.8l-0.6,0.8l0.6,0.8l0,0H2.6l0,0L2,11.3z M3.1,11.3l0.6-0.8L3.1,9.7l0.6-0.8L3.2,8h0.7l0.6,0.8L3.8,9.7
		l0.6,0.8l-0.6,0.8l0.6,0.8l0,0H3.7l0,0L3.1,11.3z M6.3,9.3V8h1.2v1.2H6.3V9.3z M5.2,9.3V8h0.5v1.2H5.2V9.3z M4.7,8v0.5L4.3,8H4.7z
		 M4.3,11.3l0.4-0.6v1.1L4.3,11.3z M5.2,10.1l2.1,2.1H6.2l-1-1V10.1z M5.5,9.8h0.3H6h0.3l0,0h0.3l1,1v1.1L5.5,9.8z M0.6,0.6h6.9v6.9
		H6.1H5.9H5.2H4.8H4.7l0,0H0.6V0.6z M0.6,11.6L1,12.1l0,0H0.6V11.6z M5.2,11.7l0.4,0.4H5.2V11.7z M19.6,12.1H8.1l0,0V9.8l0,0V9.3
		l0,0V8V7.8V0.6h11.6v11.5H19.6z"/>
	<rect x="0.9" y="0.9" transform="matrix(0.7071 -0.7071 0.7071 0.7071 -0.415 1.1057)" width="0.4" height="0.4"/>
	<rect x="2.4" y="0.9" transform="matrix(0.7071 -0.7071 0.7071 0.7071 2.565610e-02 2.165)" width="0.4" height="0.4"/>
	<rect x="0.9" y="2.4" transform="matrix(0.7071 -0.7071 0.7071 0.7071 -1.4743 1.5464)" width="0.4" height="0.4"/>
	<rect x="1.6" y="1.6" transform="matrix(0.7071 -0.7071 0.7071 0.7071 -0.745 1.8057)" width="0.4" height="0.4"/>
	<rect x="2.4" y="2.4" transform="matrix(0.7071 -0.7071 0.7071 0.7071 -1.0337 2.6057)" width="0.4" height="0.4"/>
	<rect x="0.9" y="3.9" transform="matrix(0.7071 -0.7071 0.7071 0.7071 -2.5337 1.987)" width="0.4" height="0.4"/>
	<rect x="1.6" y="3.1" transform="matrix(0.7071 -0.7071 0.7071 0.7071 -1.8044 2.2464)" width="0.4" height="0.4"/>
	<rect x="3.1" y="1.6" transform="matrix(0.7071 -0.7071 0.7071 0.7071 -0.3044 2.865)" width="0.4" height="0.4"/>
	<rect x="3.9" y="0.8" transform="matrix(0.7071 -0.7071 0.7071 0.7071 0.4663 3.2244)" width="0.4" height="0.4"/>
	<rect x="0.9" y="5.3" transform="matrix(0.7071 -0.7071 0.7071 0.7071 -3.5637 2.357)" width="0.4" height="0.4"/>
	<rect x="1.6" y="4.6" transform="matrix(0.7071 -0.7071 0.7071 0.7071 -2.8637 2.687)" width="0.4" height="0.4"/>
	<rect x="5.4" y="0.8" transform="matrix(0.7071 -0.7071 0.7071 0.7071 0.907 4.2837)" width="0.4" height="0.4"/>
	<rect x="2.4" y="3.8" transform="matrix(0.7071 -0.7071 0.7071 0.7071 -2.093 3.0464)" width="0.4" height="0.4"/>
	<rect x="4.6" y="1.6" transform="matrix(0.7071 -0.7071 0.7071 0.7071 0.1363 3.9244)" width="0.4" height="0.4"/>
	<rect x="3.9" y="2.3" transform="matrix(0.7071 -0.7071 0.7071 0.7071 -0.593 3.665)" width="0.4" height="0.4"/>
	<rect x="3.1" y="3.1" transform="matrix(0.7071 -0.7071 0.7071 0.7071 -1.3637 3.3057)" width="0.4" height="0.4"/>
	<rect x="4.6" y="3.1" transform="matrix(0.7071 -0.7071 0.7071 0.7071 -0.9231 4.365)" width="0.4" height="0.4"/>
	<rect x="5.4" y="2.3" transform="matrix(0.7071 -0.7071 0.7071 0.7071 -0.1524 4.7244)" width="0.4" height="0.4"/>
	<rect x="0.9" y="6.8" transform="matrix(0.7071 -0.7071 0.7071 0.7071 -4.623 2.7976)" width="0.4" height="0.4"/>
	<rect x="6.9" y="0.8" transform="matrix(0.7071 -0.7071 0.7071 0.7071 1.3477 5.343)" width="0.4" height="0.4"/>
	<rect x="6.1" y="1.6" transform="matrix(0.7071 -0.7071 0.7071 0.7071 0.577 4.9837)" width="0.4" height="0.4"/>
	<rect x="3.9" y="3.8" transform="matrix(0.7071 -0.7071 0.7071 0.7071 -1.6523 4.1057)" width="0.4" height="0.4"/>
	<rect x="3.1" y="4.6" transform="matrix(0.7071 -0.7071 0.7071 0.7071 -2.423 3.7463)" width="0.4" height="0.4"/>
	<rect x="2.4" y="5.3" transform="matrix(0.7071 -0.7071 0.7071 0.7071 -3.123 3.4163)" width="0.4" height="0.4"/>
	<rect x="1.6" y="6.1" transform="matrix(0.7071 -0.7071 0.7071 0.7071 -3.923 3.1277)" width="0.4" height="0.4"/>
	<rect x="3.9" y="5.3" transform="matrix(0.7071 -0.7071 0.7071 0.7071 -2.6824 4.4756)" width="0.4" height="0.4"/>
	<rect x="5.4" y="3.8" transform="matrix(0.7071 -0.7071 0.7071 0.7071 -1.2117 5.165)" width="0.4" height="0.4"/>
	<rect x="2.4" y="6.8" transform="matrix(0.7071 -0.7071 0.7071 0.7071 -4.1824 3.8569)" width="0.4" height="0.4"/>
	<rect x="6.9" y="2.3" transform="matrix(0.7071 -0.7071 0.7071 0.7071 0.2884 5.7837)" width="0.4" height="0.4"/>
	<rect x="3.1" y="6.1" transform="matrix(0.7071 -0.7071 0.7071 0.7071 -3.4824 4.187)" width="0.4" height="0.4"/>
	<rect x="4.6" y="4.6" transform="matrix(0.7071 -0.7071 0.7071 0.7071 -1.9824 4.8057)" width="0.4" height="0.4"/>
	<rect x="6.1" y="3.1" transform="matrix(0.7071 -0.7071 0.7071 0.7071 -0.4824 5.4243)" width="0.4" height="0.4"/>
	<rect x="5.4" y="5.3" transform="matrix(0.7071 -0.7071 0.7071 0.7071 -2.2417 5.535)" width="0.4" height="0.4"/>
	<rect x="6.1" y="4.6" transform="matrix(0.7071 -0.7071 0.7071 0.7071 -1.5417 5.865)" width="0.4" height="0.4"/>
	<rect x="3.9" y="6.8" transform="matrix(0.7071 -0.7071 0.7071 0.7071 -3.7417 4.9163)" width="0.4" height="0.4"/>
	<rect x="4.6" y="6.1" transform="matrix(0.7071 -0.7071 0.7071 0.7071 -3.0417 5.2463)" width="0.4" height="0.4"/>
	<rect x="6.9" y="3.8" transform="matrix(0.7071 -0.7071 0.7071 0.7071 -0.771 6.2243)" width="0.4" height="0.4"/>
	<rect x="6.9" y="5.3" transform="matrix(0.7071 -0.7071 0.7071 0.7071 -1.8012 6.5943)" width="0.4" height="0.4"/>
	<rect x="5.4" y="6.8" transform="matrix(0.7071 -0.7071 0.7071 0.7071 -3.3011 5.9756)" width="0.4" height="0.4"/>
	<rect x="6.1" y="6.1" transform="matrix(0.7071 -0.7071 0.7071 0.7071 -2.6011 6.3057)" width="0.4" height="0.4"/>
	<rect x="6.9" y="6.8" transform="matrix(0.7071 -0.7071 0.7071 0.7071 -2.8604 7.0349)" width="0.4" height="0.4"/>
</g>
</svg>
