<?xml version="1.0" encoding="utf-8"?>
<!-- Generator: Adobe Illustrator 28.0.0, SVG Export Plug-In . SVG Version: 6.00 Build 0)  -->
<svg version="1.1" id="Layer_2_00000105417593368598851470000003974512942670046864_"
	 xmlns="http://www.w3.org/2000/svg" xmlns:xlink="http://www.w3.org/1999/xlink" x="0px" y="0px" viewBox="0 0 20.2 12.7"
	 style="enable-background:new 0 0 20.2 12.7;" xml:space="preserve">
<style type="text/css">
	.st0{fill:#FFFFFF;}
</style>
<g>
	<path class="st0" d="M12.9,10.4h0.7l0.1-0.3h0.1h0.4c0.5,0,0.8-0.4,0.8-0.9V8c0-0.2-0.1-0.5-0.2-0.6l0.2-0.5h-0.7l-0.1,0.2h-0.1
		h-0.4c-0.5,0-0.9,0.4-0.9,0.9v1.3c0,0.2,0.1,0.5,0.3,0.6L12.9,10.4z M14.3,8.3v1c0,0.2-0.1,0.3-0.3,0.3h-0.1L14.3,8.3z M13.4,8
		c0-0.1,0.1-0.3,0.3-0.3h0.2l-0.5,1.2V8z"/>
	<polygon class="st0" points="11.2,8.9 10.5,7.1 9.7,7.1 9.7,10.2 10.3,10.2 10.3,8.4 11,10.2 11.8,10.2 11.8,7.1 11.2,7.1 	"/>
	<path class="st0" d="M10.9,5.4c0.5,0,0.9-0.4,0.9-0.9V4.4c0-0.2-0.1-0.5-0.3-0.6c0.1-0.1,0.2-0.3,0.2-0.5v0c0-0.5-0.4-0.9-0.9-0.9
		h-0.5H9.7v3.1H10H10.9z M10.3,2.9h0.5c0.1,0,0.3,0.1,0.3,0.3v0c0,0.1-0.1,0.3-0.3,0.3h-0.5V2.9z M10.3,4.1h0.6
		c0.1,0,0.3,0.1,0.3,0.3v0.1c0,0.1-0.1,0.3-0.3,0.3h-0.6V4.1z"/>
	<polygon class="st0" points="14.9,4.8 13.7,4.8 13.7,2.3 13.2,2.3 13.2,4.8 12.8,4.8 12.8,5.4 14.9,5.4 	"/>
	<polygon class="st0" points="16.5,4.1 16.5,4.1 17.2,5.4 18,5.4 17,3.8 18,2.3 17.2,2.3 16.5,3.5 16.5,3.5 16.5,2.3 15.9,2.3 
		15.9,5.4 16.5,5.4 	"/>
	<polygon class="st0" points="16.7,10.1 16.9,9.1 17.2,10.1 17.7,10.1 18,8.1 18,7.1 17.3,7.1 17.3,7.9 17.3,8.7 17.2,7.8 16.7,7.8 
		16.5,8.7 16.4,7.9 16.4,7.1 15.9,7.1 15.9,8.1 16.2,10.1 	"/>
	<path class="st0" d="M8.1,0H7.8H7.5H0.6H0.1v7.7v0V8v4.6h4.6h0.3h2.8h0.3h12.1V0H8.1z M7.5,10.3L7.1,9.8h0.4V10.3z M4.7,10.2
		L4.3,9.7l0.4-0.6v0.2v0v0.3v0.3V10.2z M1,8.8L0.6,9.4V8.3L1,8.8z M0.6,9.9L1,10.5l-0.4,0.6V9.9z M1.4,10.5L0.9,9.7l0.6-0.8L0.9,8
		h0.7l0.6,0.8L1.5,9.7l0.6,0.8l-0.6,0.8l0.6,0.8l0,0H1.4l0,0l-0.6-0.8L1.4,10.5z M2,11.3l0.6-0.8L2,9.7l0.6-0.8L2,8h0.7l0.6,0.8
		L2.7,9.7l0.6,0.8l-0.6,0.8l0.6,0.8l0,0H2.6l0,0L2,11.3z M3.1,11.3l0.6-0.8L3.1,9.7l0.6-0.8L3.2,8h0.7l0.6,0.8L3.8,9.7l0.6,0.8
		l-0.6,0.8l0.6,0.8l0,0H3.7l0,0L3.1,11.3z M6.3,9.3V8h1.2v1.2H6.3z M5.2,9.3V8h0.5v1.2H5.2z M4.7,8v0.5L4.3,8H4.7z M4.3,11.3
		l0.4-0.6v1.1L4.3,11.3z M5.2,10.1l2.1,2.1H6.2l-1-1V10.1z M5.5,9.8h0.3H6h0.3v0h0.3l1,1v1.1L5.5,9.8z M0.6,0.6h6.9v6.9H6.1H5.9H5.2
		H4.8H4.7v0H0.6V0.6z M0.6,11.6L1,12.1l0,0H0.6V11.6z M5.2,11.7l0.4,0.4H5.2V11.7z M19.6,12.1H8.1h0V9.8h0V9.3h0V8V7.8V0.6h11.6
		V12.1z"/>
	<rect x="0.9" y="0.9" transform="matrix(0.7071 -0.7071 0.7071 0.7071 -0.4284 1.0538)" class="st0" width="0.4" height="0.4"/>
	
		<rect x="2.4" y="0.9" transform="matrix(0.7071 -0.7071 0.7071 0.7071 9.991535e-03 2.1122)" class="st0" width="0.4" height="0.4"/>
	<rect x="0.9" y="2.4" transform="matrix(0.7071 -0.7071 0.7071 0.7071 -1.4868 1.4922)" class="st0" width="0.4" height="0.4"/>
	<rect x="1.6" y="1.6" transform="matrix(0.7071 -0.7071 0.7071 0.7071 -0.7384 1.8022)" class="st0" width="0.4" height="0.4"/>
	<rect x="2.4" y="2.4" transform="matrix(0.7071 -0.7071 0.7071 0.7071 -1.0484 2.5506)" class="st0" width="0.4" height="0.4"/>
	<rect x="0.9" y="3.9" transform="matrix(0.7071 -0.7071 0.7071 0.7071 -2.5452 1.9306)" class="st0" width="0.4" height="0.4"/>
	<rect x="1.6" y="3.1" transform="matrix(0.7071 -0.7071 0.7071 0.7071 -1.7968 2.2406)" class="st0" width="0.4" height="0.4"/>
	<rect x="3.1" y="1.6" transform="matrix(0.7071 -0.7071 0.7071 0.7071 -0.3 2.8606)" class="st0" width="0.4" height="0.4"/>
	<rect x="3.9" y="0.9" transform="matrix(0.7071 -0.7071 0.7071 0.7071 0.4484 3.1706)" class="st0" width="0.4" height="0.4"/>
	<rect x="0.9" y="5.3" transform="matrix(0.7071 -0.7071 0.7071 0.7071 -3.6036 2.369)" class="st0" width="0.4" height="0.4"/>
	<rect x="1.6" y="4.6" transform="matrix(0.7071 -0.7071 0.7071 0.7071 -2.8552 2.679)" class="st0" width="0.4" height="0.4"/>
	<rect x="5.4" y="0.9" transform="matrix(0.7071 -0.7071 0.7071 0.7071 0.8868 4.229)" class="st0" width="0.4" height="0.4"/>
	<rect x="2.4" y="3.9" transform="matrix(0.7071 -0.7071 0.7071 0.7071 -2.1068 2.989)" class="st0" width="0.4" height="0.4"/>
	<rect x="4.6" y="1.6" transform="matrix(0.7071 -0.7071 0.7071 0.7071 0.1384 3.919)" class="st0" width="0.4" height="0.4"/>
	<rect x="3.9" y="2.4" transform="matrix(0.7071 -0.7071 0.7071 0.7071 -0.61 3.609)" class="st0" width="0.4" height="0.4"/>
	<rect x="3.1" y="3.1" transform="matrix(0.7071 -0.7071 0.7071 0.7071 -1.3584 3.299)" class="st0" width="0.4" height="0.4"/>
	<rect x="4.6" y="3.1" transform="matrix(0.7071 -0.7071 0.7071 0.7071 -0.92 4.3574)" class="st0" width="0.4" height="0.4"/>
	<rect x="5.4" y="2.4" transform="matrix(0.7071 -0.7071 0.7071 0.7071 -0.1716 4.6674)" class="st0" width="0.4" height="0.4"/>
	<rect x="0.9" y="6.8" transform="matrix(0.7071 -0.7071 0.7071 0.7071 -4.662 2.8074)" class="st0" width="0.4" height="0.4"/>
	<rect x="6.9" y="0.9" transform="matrix(0.7071 -0.7071 0.7071 0.7071 1.3252 5.2873)" class="st0" width="0.4" height="0.4"/>
	<rect x="6.1" y="1.6" transform="matrix(0.7071 -0.7071 0.7071 0.7071 0.5768 4.9773)" class="st0" width="0.4" height="0.4"/>
	<rect x="3.9" y="3.9" transform="matrix(0.7071 -0.7071 0.7071 0.7071 -1.6684 4.0474)" class="st0" width="0.4" height="0.4"/>
	<rect x="3.1" y="4.6" transform="matrix(0.7071 -0.7071 0.7071 0.7071 -2.4168 3.7374)" class="st0" width="0.4" height="0.4"/>
	<rect x="2.4" y="5.3" transform="matrix(0.7071 -0.7071 0.7071 0.7071 -3.1652 3.4274)" class="st0" width="0.4" height="0.4"/>
	<rect x="1.6" y="6.1" transform="matrix(0.7071 -0.7071 0.7071 0.7071 -3.9136 3.1174)" class="st0" width="0.4" height="0.4"/>
	<rect x="3.9" y="5.3" transform="matrix(0.7071 -0.7071 0.7071 0.7071 -2.7268 4.4858)" class="st0" width="0.4" height="0.4"/>
	<rect x="5.4" y="3.9" transform="matrix(0.7071 -0.7071 0.7071 0.7071 -1.23 5.1058)" class="st0" width="0.4" height="0.4"/>
	<rect x="2.4" y="6.8" transform="matrix(0.7071 -0.7071 0.7071 0.7071 -4.2236 3.8658)" class="st0" width="0.4" height="0.4"/>
	<rect x="6.9" y="2.4" transform="matrix(0.7071 -0.7071 0.7071 0.7071 0.2668 5.7257)" class="st0" width="0.4" height="0.4"/>
	<rect x="3.1" y="6.1" transform="matrix(0.7071 -0.7071 0.7071 0.7071 -3.4752 4.1758)" class="st0" width="0.4" height="0.4"/>
	<rect x="4.6" y="4.6" transform="matrix(0.7071 -0.7071 0.7071 0.7071 -1.9784 4.7958)" class="st0" width="0.4" height="0.4"/>
	<rect x="6.1" y="3.1" transform="matrix(0.7071 -0.7071 0.7071 0.7071 -0.4816 5.4158)" class="st0" width="0.4" height="0.4"/>
	<rect x="5.4" y="5.3" transform="matrix(0.7071 -0.7071 0.7071 0.7071 -2.2884 5.5442)" class="st0" width="0.4" height="0.4"/>
	<rect x="6.1" y="4.6" transform="matrix(0.7071 -0.7071 0.7071 0.7071 -1.54 5.8542)" class="st0" width="0.4" height="0.4"/>
	<rect x="3.9" y="6.8" transform="matrix(0.7071 -0.7071 0.7071 0.7071 -3.7852 4.9242)" class="st0" width="0.4" height="0.4"/>
	<rect x="4.6" y="6.1" transform="matrix(0.7071 -0.7071 0.7071 0.7071 -3.0368 5.2342)" class="st0" width="0.4" height="0.4"/>
	<rect x="6.9" y="3.9" transform="matrix(0.7071 -0.7071 0.7071 0.7071 -0.7916 6.1642)" class="st0" width="0.4" height="0.4"/>
	<rect x="6.9" y="5.3" transform="matrix(0.7071 -0.7071 0.7071 0.7071 -1.85 6.6028)" class="st0" width="0.4" height="0.4"/>
	<rect x="5.4" y="6.8" transform="matrix(0.7071 -0.7071 0.7071 0.7071 -3.3468 5.9826)" class="st0" width="0.4" height="0.4"/>
	<rect x="6.1" y="6.1" transform="matrix(0.7071 -0.7071 0.7071 0.7071 -2.5984 6.2926)" class="st0" width="0.4" height="0.4"/>
	<rect x="6.9" y="6.8" transform="matrix(0.7071 -0.7071 0.7071 0.7071 -2.9084 7.041)" class="st0" width="0.4" height="0.4"/>
</g>
</svg>
