<?xml version="1.0" encoding="utf-8"?>
<!-- Generator: Adobe Illustrator 28.1.0, SVG Export Plug-In . SVG Version: 6.00 Build 0)  -->
<svg version="1.1" id="Layer_1" xmlns="http://www.w3.org/2000/svg" xmlns:xlink="http://www.w3.org/1999/xlink" x="0px" y="0px"
	 viewBox="0 0 100 100" style="enable-background:new 0 0 100 100;" xml:space="preserve">
<style type="text/css">
	.st0{fill:#5EE4FD;}
</style>
<path class="st0" d="M0.1,0.1v99.8h99.8V0.1H0.1z M50.6,13.2l7.1,7.1l-7.1,7.1l-7.1-7.1L50.6,13.2z M50.7,43.6l7.1,7.1l-7.1,7.1
	l-7.1-7.1L50.7,43.6z M41.2,35.6l-7.1,7.1l-7.1-7.1l7.1-7.1L41.2,35.6z M20.4,13.3l7.1,7.1l-7.1,7.1l-7.1-7.1L20.4,13.3z M20.3,43.6
	l7.1,7.1l-7.1,7.1l-7.1-7.1L20.3,43.6z M18.9,86.8l-7.1-7.1l7.1-7.1l7.1,7.1L18.9,86.8z M34.2,73.1L27,65.9l7.1-7.1l7.1,7.1
	L34.2,73.1z M49.4,86.8l-7.1-7.1l7.1-7.1l7.1,7.1L49.4,86.8z M64.4,73l-7.1-7.1l7.1-7.1l7.1,7.1L64.4,73z M64.5,42.7l-7.1-7.1
	l7.1-7.1l7.1,7.1L64.5,42.7z M79.6,86.7l-7.1-7.1l7.1-7.1l7.1,7.1L79.6,86.7z M81,57.8l-7.1-7.1l7.1-7.1l7.1,7.1L81,57.8z
	 M81.1,27.4l-7.1-7.1l7.1-7.1l7.1,7.1L81.1,27.4z"/>
</svg>
