<?xml version="1.0" encoding="utf-8"?>
<!-- Generator: Adobe Illustrator 28.1.0, SVG Export Plug-In . SVG Version: 6.00 Build 0)  -->
<svg version="1.1" id="Layer_1" xmlns="http://www.w3.org/2000/svg" xmlns:xlink="http://www.w3.org/1999/xlink" x="0px" y="0px"
	 viewBox="0 0 100 100" style="enable-background:new 0 0 100 100;" xml:space="preserve">
<style type="text/css">
	.st0{fill:#5EE4FD;}
</style>
<g>
	<rect x="15.3" y="15.4" transform="matrix(0.7071 -0.7071 0.7071 0.7071 -8.4793 20.33)" class="st0" width="10.1" height="10.1"/>
	
		<rect x="15.3" y="45.7" transform="matrix(0.7071 -0.7071 0.7071 0.7071 -29.9278 29.2519)" class="st0" width="10.1" height="10.1"/>
	
		<rect x="45.6" y="15.3" transform="matrix(0.7071 -0.7071 0.7071 0.7071 0.4419 41.7767)" class="st0" width="10.1" height="10.1"/>
	
		<rect x="29" y="30.5" transform="matrix(0.7071 -0.7071 0.7071 0.7071 -15.1618 34.5046)" class="st0" width="10.1" height="10.1"/>
	
		<rect x="59.4" y="30.5" transform="matrix(0.7072 -0.7071 0.7071 0.7072 -6.2413 55.9464)" class="st0" width="10.1" height="10.1"/>
	<rect x="76" y="15.3" transform="matrix(0.7071 -0.7071 0.7071 0.7071 9.3647 63.2268)" class="st0" width="10.1" height="10.1"/>
	
		<rect x="45.6" y="45.7" transform="matrix(0.7071 -0.7071 0.7071 0.7071 -21.0059 50.698)" class="st0" width="10.1" height="10.1"/>
	
		<rect x="29.1" y="60.9" transform="matrix(0.7071 -0.7071 0.7071 0.7071 -36.6105 43.4249)" class="st0" width="10.1" height="10.1"/>
	
		<rect x="13.9" y="74.6" transform="matrix(0.7071 -0.7071 0.7071 0.7071 -50.7846 36.7447)" class="st0" width="10.1" height="10.1"/>
	
		<rect x="44.3" y="74.6" transform="matrix(0.7071 -0.7071 0.7071 0.7071 -41.8604 58.1877)" class="st0" width="10.1" height="10.1"/>
	
		<rect x="76" y="45.6" transform="matrix(0.7071 -0.7071 0.7071 0.7071 -12.0844 72.1459)" class="st0" width="10.1" height="10.1"/>
	
		<rect x="59.4" y="60.8" transform="matrix(0.7071 -0.7071 0.7071 0.7071 -27.6883 64.8733)" class="st0" width="10.1" height="10.1"/>
	
		<rect x="74.6" y="74.5" transform="matrix(0.7071 -0.7071 0.7071 0.7071 -32.9395 79.6392)" class="st0" width="10.1" height="10.1"/>
</g>
<g>
	<path class="st0" d="M99.9,99.9H0.1V0.1h99.8V99.9z M3.1,96.9h93.8V3.1H3.1V96.9z"/>
</g>
</svg>
